<svg width="19" height="14" viewBox="0 0 19 14" fill="none" xmlns="http://www.w3.org/2000/svg">
<path d="M16.4 13L4.4 1M8.24 5.75326C7.94127 6.08261 7.76 6.51523 7.76 6.98905C7.76 8.02087 8.61961 8.85733 9.68 8.85733C10.1689 8.85733 10.6151 8.67951 10.9541 8.38671M16.431 8.85733C17.092 7.86786 17.36 7.0609 17.36 7.0609C17.36 7.0609 15.6123 1.48 9.68 1.48C9.34695 1.48 9.0271 1.49759 8.72 1.53079M14 11.2796C12.8981 11.9825 11.4795 12.4796 9.68 12.4502C3.82154 12.3544 2 7.0609 2 7.0609C2 7.0609 2.84629 4.35846 5.36 2.71466" stroke="#999999" stroke-width="2" stroke-linecap="round"/>
</svg>
