<svg width="39" height="38" viewBox="0 0 39 38" fill="none" xmlns="http://www.w3.org/2000/svg">
<path d="M19.1025 38C29.5959 38 38.1025 29.4934 38.1025 19C38.1025 8.50659 29.5959 0 19.1025 0C8.60913 0 0.102539 8.50659 0.102539 19C0.102539 29.4934 8.60913 38 19.1025 38Z" fill="url(#paint0_linear_1417_144)"/>
<path d="M21.081 27.3481V19.5961H23.7976L24.3131 16.3905H21.081V14.3065C21.081 13.4304 21.5338 12.5742 22.9756 12.5742H24.4454V9.84646C24.4454 9.84646 23.115 9.62744 21.8402 9.62744C19.1794 9.62744 17.4379 11.1606 17.4379 13.9481V16.3905H14.4775V19.5961H17.4379V27.3481H21.081Z" fill="#408DFF"/>
<defs>
<linearGradient id="paint0_linear_1417_144" x1="5.67095" y1="5.57126" x2="32.5287" y2="32.4292" gradientUnits="userSpaceOnUse">
<stop stop-color="#F4F4F4"/>
<stop offset="1" stop-color="#E6E6E6"/>
</linearGradient>
</defs>
</svg>
