<svg width="38" height="38" viewBox="0 0 38 38" fill="none" xmlns="http://www.w3.org/2000/svg">
<path d="M19 38C29.4934 38 38 29.4934 38 19C38 8.50659 29.4934 0 19 0C8.50659 0 0 8.50659 0 19C0 29.4934 8.50659 38 19 38Z" fill="url(#paint0_linear_1417_148)"/>
<path d="M13.0438 19.2332C13.0712 19.9331 13.2222 20.6056 13.4761 21.23L10.5461 23.5561C9.80507 22.1838 9.38651 20.6056 9.40023 18.9313C9.43454 13.641 13.8946 9.29752 19.185 9.40731C21.6621 9.45534 23.9127 10.4434 25.5938 12.0353C25.8614 12.2892 25.8614 12.7146 25.5938 12.9685L23.8715 14.5879C23.6245 14.8212 23.2402 14.8212 22.9932 14.5947C21.9365 13.6341 20.5299 13.0509 18.9929 13.0509C15.6375 13.044 12.9134 15.8436 13.0438 19.2332Z" fill="#E7BA00"/>
<path d="M28.6131 17.3462C28.6131 17.3462 28.6062 19.487 28.5993 19.5488C28.4484 22.2317 27.1996 24.6264 25.2851 26.2732L22.6983 23.6864C23.5766 22.9934 24.2559 22.0602 24.6333 20.9897H19.9468C19.5899 20.9897 19.3018 20.7016 19.3018 20.3447V17.9912C19.3018 17.6344 19.5899 17.3462 19.9468 17.3462H28.6131Z" fill="#4387F4"/>
<path d="M25.5802 12.9616L23.8579 14.581C23.7344 14.6976 23.5834 14.7525 23.4325 14.7525C23.5903 14.7525 23.755 14.6976 23.8785 14.581L25.6008 12.9616C25.8684 12.7077 25.8684 12.2823 25.6008 12.0284C23.9265 10.4365 21.6759 9.44842 19.192 9.40039C19.1851 9.40039 19.1782 9.40039 19.1714 9.40039C21.6485 9.44842 23.8991 10.4434 25.5733 12.0284C25.8547 12.2823 25.8547 12.7146 25.5802 12.9616Z" fill="#3AA458"/>
<path d="M19.9332 17.3325H28.5789C28.5789 17.3325 28.572 19.4733 28.5652 19.5351C28.4142 22.218 27.1654 24.6127 25.251 26.2595L22.671 23.6796C21.6486 24.4824 20.3586 24.9558 18.9588 24.949C15.7956 24.9284 13.1744 22.3964 13.0509 19.2332C12.9205 15.8504 15.6309 13.0508 18.9794 13.0439C15.6172 13.0439 12.8999 15.8435 13.0303 19.2332C13.0578 19.9331 13.2087 20.6055 13.4626 21.2299L10.5464 23.5423C12.1657 26.5477 15.3427 28.5925 19 28.5925C24.1188 28.5925 28.3044 24.5853 28.5789 19.5351C28.5858 19.4733 28.5926 17.3325 28.5926 17.3325H19.9332Z" fill="#3AA458"/>
<path d="M19.1782 9.40023C13.881 9.29731 9.42773 13.6339 9.38656 18.9242C9.37283 20.5985 9.7914 22.1767 10.5325 23.549L10.5462 23.5353C9.80512 22.163 9.39342 20.5916 9.40714 18.9242C9.44831 13.6408 13.8947 9.31103 19.1782 9.40023Z" fill="#3AA458"/>
<path d="M19.0064 13.0439C18.9996 13.0439 18.9927 13.0439 18.9858 13.0439C20.5229 13.0439 21.9226 13.6272 22.9793 14.5878C23.1097 14.7045 23.2675 14.7594 23.4322 14.7594C23.2813 14.7594 23.1234 14.6976 22.9999 14.5878C21.9432 13.6272 20.5434 13.0439 19.0064 13.0439Z" fill="#3AA458"/>
<path d="M25.6075 12.9616L23.8852 14.5809C23.6382 14.8142 23.2539 14.8142 23.0069 14.5878C21.9502 13.6272 20.5435 13.0439 19.0065 13.0439C16.4608 13.0439 14.2857 14.6496 13.4348 16.9002L10.498 14.6015C12.138 11.4726 15.4659 9.32489 19.1987 9.40037C21.6757 9.4484 23.9264 10.4365 25.6075 12.0284C25.8751 12.2823 25.8751 12.7146 25.6075 12.9616Z" fill="#EB4338"/>
<defs>
<linearGradient id="paint0_linear_1417_148" x1="5.56841" y1="5.57126" x2="32.4262" y2="32.4292" gradientUnits="userSpaceOnUse">
<stop stop-color="#F4F4F4"/>
<stop offset="1" stop-color="#E6E6E6"/>
</linearGradient>
</defs>
</svg>
